<svg width="265" height="265" viewBox="0 0 265 265" fill="none" xmlns="http://www.w3.org/2000/svg">
<rect x="5" y="5" width="255" height="255" rx="36" fill="#1226AA" stroke="white" stroke-width="10"/>
<path fill-rule="evenodd" clip-rule="evenodd" d="M65.0188 161.094C64.0289 161.019 63.0348 161.019 62.045 161.094C58.385 161.551 57.3175 163.381 58.4613 166.431L60.215 166.965C61.0361 167.242 61.8278 167.6 62.5788 168.033C63.4635 168.449 64.285 168.988 65.0188 169.634C65.9167 170.213 66.7367 170.905 67.4588 171.693L67.9925 172.379C70.8138 173.446 72.5675 172.379 73.1013 169.253C72.5875 167.881 71.8676 166.595 70.9663 165.44C69.428 163.465 67.3679 161.96 65.0188 161.094Z" fill="white"/>
<path fill-rule="evenodd" clip-rule="evenodd" d="M80.1163 150.419C83.7438 151.531 87.6213 151.531 91.2488 150.419C96.662 148.964 101.653 146.246 105.813 142.489C110.13 138.274 112.691 132.58 112.98 126.552C112.843 120.859 110.586 115.421 106.651 111.302C105.133 109.538 103.248 108.126 101.127 107.165C99.0072 106.203 96.7029 105.716 94.375 105.736C90.715 106.956 91.7063 109.854 93.9175 110.387C97.1701 110.983 100.066 112.814 102 115.496C104.348 118.452 105.517 122.175 105.279 125.942C104.786 129.901 102.893 133.553 99.9413 136.236C96.8758 139.268 93.1786 141.585 89.1138 143.022C87.0102 143.963 84.6741 144.255 82.4038 143.861C79.9208 143.398 77.6802 142.075 76.075 140.125C75.6365 139.69 75.2525 139.204 74.9313 138.676C73.1013 136.694 70.3563 141.192 71.3475 143.022V143.48C73.3767 146.74 76.4767 149.193 80.1163 150.419Z" fill="white"/>
<path fill-rule="evenodd" clip-rule="evenodd" d="M222.017 92.7738C220.915 89.9815 219.259 87.441 217.149 85.3051C215.04 83.1692 212.52 81.482 209.741 80.345C207.552 79.3248 205.131 78.9038 202.726 79.125C202.774 78.4642 202.573 77.8093 202.165 77.2879C201.756 76.7664 201.168 76.4156 200.515 76.3038C197.814 75.8129 195.141 75.1766 192.509 74.3975C186.18 72.5675 180.004 70.28 173.675 68.3738L147.75 61.8925C141.65 60.1388 135.397 57.2413 128.992 55.8688C125.917 55.1744 122.763 54.8923 119.614 55.03C115.165 55.3236 110.875 56.7975 107.185 59.3C103.416 61.601 100.273 64.7962 98.035 68.6025C96.3067 71.8231 95.7926 75.5572 96.5862 79.125C97.221 81.5673 98.4826 83.8015 100.246 85.6063C98.8023 86.9347 97.452 88.3614 96.205 89.8763C94.07 92.545 92.1637 95.4425 90.1812 98.34L74.9312 121.901L51.675 158.883L48.625 163.381L46.185 167.118C42.9341 171.95 41.1349 177.612 41 183.435C41.1164 184.053 41.2692 184.665 41.4575 185.265C41.4202 185.467 41.4202 185.673 41.4575 185.875C41.9912 188.849 42.6013 192.356 43.5163 195.635C44.1908 198.023 45.1374 200.326 46.3375 202.498C47.9293 205.051 50.1961 207.115 52.8874 208.46C55.5787 209.806 58.5897 210.381 61.5875 210.123C65.4485 209.934 69.2445 209.056 72.7963 207.53C76.1329 206.143 79.3253 204.432 82.3275 202.421L88.8087 198.304L95.3663 193.5C95.9988 193.202 96.489 192.667 96.7314 192.011C96.9738 191.355 96.9491 190.63 96.6625 189.993C96.3507 189.374 95.8104 188.9 95.1558 188.672C94.5011 188.445 93.7836 188.481 93.155 188.773L85.53 192.89L78.7437 196.093C75.8133 197.409 72.8091 198.555 69.7462 199.524C66.919 200.386 64.0027 200.923 61.0538 201.125C59.4717 201.402 57.8452 201.274 56.3256 200.755C54.8059 200.235 53.4422 199.339 52.3613 198.151C51.1859 196.727 50.1873 195.165 49.3875 193.5L48.625 191.289C50.5265 191.867 52.536 191.997 54.4962 191.67C57.1421 191.075 59.7035 190.153 62.1212 188.925C65.3713 187.344 68.5053 185.535 71.5 183.511C75.6175 180.614 79.5825 177.411 83.7763 174.59C84.5388 173.98 86.75 173.218 88.3513 172.303C89.3774 175.265 90.6794 178.124 92.24 180.843C93.4647 182.859 94.9806 184.683 96.7387 186.256C98.2736 187.627 100.14 188.573 102.153 189.001C103.949 189.412 105.832 189.197 107.49 188.391C110.042 187.049 112.139 184.979 113.514 182.444C115.345 179.137 116.241 175.394 116.106 171.616C118.079 172.151 120.158 172.151 122.13 171.616C123.633 171.13 125.005 170.308 126.141 169.211C127.278 168.114 128.149 166.772 128.688 165.288C129.404 163.233 129.639 161.042 129.374 158.883C128.958 156.275 128.268 153.72 127.315 151.258C127.315 150.419 127.315 149.123 126.705 148.589C127.606 147.943 128.548 147.357 129.526 146.835L135.855 144.014V145.615L136.999 149.809C138.627 155.106 141.752 159.819 145.996 163.381C147.381 164.28 148.996 164.759 150.648 164.759C152.299 164.759 153.914 164.28 155.299 163.381C157.121 162.28 158.663 160.77 159.801 158.97C160.939 157.17 161.643 155.13 161.856 153.011C162.333 147.644 161.549 142.239 159.569 137.228C159.569 136.236 158.577 131.966 157.129 131.509C157.764 130.807 158.512 130.214 159.34 129.755C161.856 128.23 164.83 127.086 166.965 126.095C170.015 124.57 172.989 122.816 175.963 120.986C180.233 118.318 184.426 115.496 188.62 112.751C189.107 112.413 189.463 111.919 189.63 111.35C189.796 110.781 189.763 110.172 189.535 109.625C189.947 109.315 190.25 108.882 190.401 108.389C190.551 107.896 190.542 107.367 190.374 106.88C189.224 103.754 189.224 100.322 190.374 97.1963C191.801 94.158 193.979 91.5338 196.703 89.5713C198.137 88.2105 199.896 87.2393 201.811 86.75C203.417 86.3762 205.105 86.6212 206.539 87.4363C208.768 88.5278 210.698 90.1471 212.159 92.1536C213.621 94.1601 214.571 96.4931 214.926 98.95C215.808 104.285 215.255 109.759 213.325 114.81C211.731 119.577 209.13 123.946 205.7 127.62C199.867 133.354 193.453 138.465 186.561 142.87C182.444 145.691 178.326 148.818 174.056 151.715C171.235 153.545 168.414 155.375 165.516 156.9C164.971 157.163 164.552 157.632 164.352 158.204C164.152 158.776 164.187 159.404 164.449 159.95C164.727 160.501 165.21 160.921 165.794 161.121C166.379 161.32 167.018 161.283 167.575 161.018C170.701 159.645 173.751 157.968 176.877 156.214L190.069 148.589C197.842 144.553 205.11 139.614 211.724 133.873C216.292 129.191 219.689 123.495 221.636 117.25C224.6 109.383 224.735 100.729 222.017 92.7738ZM173.141 116.564C170.32 118.241 167.423 119.843 164.525 121.215C161.318 122.489 158.23 124.045 155.299 125.866C153.64 126.911 152.296 128.387 151.41 130.136C150.979 131.318 150.979 132.614 151.41 133.796C152.02 135.779 153.774 138.6 154.155 139.668C155.36 143.096 155.954 146.709 155.909 150.343C156.062 151.819 155.809 153.31 155.177 154.653C154.546 155.997 153.56 157.143 152.325 157.968C150.571 158.883 149.351 157.358 148.284 155.833C146.633 153.499 145.347 150.928 144.471 148.208L143.633 144.776V139.973C143.468 139.043 143.238 138.125 142.946 137.228C142.697 136.704 142.335 136.241 141.887 135.872C141.439 135.503 140.916 135.237 140.354 135.093C139.529 134.876 138.662 134.876 137.837 135.093C136.633 135.66 135.462 136.297 134.33 136.999C131.432 138.295 128.154 139.363 125.333 140.964C123.87 141.735 122.49 142.655 121.215 143.709C119.975 144.755 119.161 146.22 118.928 147.826C118.881 150.055 119.323 152.268 120.224 154.308C120.822 155.924 121.306 157.58 121.672 159.264C121.977 160.387 121.977 161.572 121.672 162.695C121.56 162.952 121.392 163.18 121.182 163.365C120.971 163.549 120.722 163.685 120.453 163.763C119.895 163.877 119.32 163.869 118.767 163.737C118.213 163.605 117.696 163.354 117.25 163C115.954 162.39 114.81 161.323 113.514 160.636C112.905 160.34 112.265 160.11 111.608 159.95C110.682 159.622 109.668 159.642 108.755 160.006C107.843 160.371 107.095 161.056 106.651 161.933C106.327 163.363 106.327 164.848 106.651 166.279L107.719 171.921C107.763 173.733 107.398 175.531 106.651 177.183C106.169 178.487 105.289 179.608 104.135 180.385L102.839 179.623C101.474 178.353 100.339 176.857 99.4838 175.2C98.4924 173.275 97.6264 171.289 96.8912 169.253C96.266 167.089 95.4229 164.994 94.375 163C93.9019 162.383 93.2883 161.889 92.5854 161.557C91.8824 161.226 91.1105 161.067 90.3337 161.094C88.4994 161.243 86.737 161.874 85.225 162.924C82.9375 164.373 80.4975 166.66 79.2013 167.575C77.905 168.49 67.9925 175.963 67.0013 176.573C64.6024 178.412 62.0515 180.045 59.3763 181.453C57.8394 182.28 56.2318 182.969 54.5725 183.511C53.4348 183.895 52.2027 183.895 51.065 183.511C49.235 182.978 49.54 181.224 49.845 179.623C50.4489 176.499 51.475 173.472 52.895 170.625L55.1063 167.041C83.2425 119.08 60.1387 158.425 80.2688 124.646C97.425 96.1288 63.875 152.02 94.375 101.314C96.205 98.4163 97.9588 95.595 99.9413 93.0025C101.214 91.3198 102.616 89.7392 104.135 88.275C104.516 88.275 104.821 88.275 105.203 87.7413C107.643 88.3513 110.184 89.0375 112.828 89.8C119.461 92.0113 125.943 94.68 132.576 96.5863C137.761 97.73 142.946 98.7975 147.826 99.6363C152.706 100.475 158.12 101.161 163.076 102.229C165.593 102.686 168.109 103.22 170.701 103.906L183.359 108.481C183.672 108.616 184.009 108.685 184.35 108.685C184.691 108.685 185.028 108.616 185.341 108.481C181.529 111.303 177.411 114.048 173.141 116.564ZM192.433 84.0813C188.98 86.9858 186.351 90.7457 184.808 94.985C184.005 97.6255 183.771 100.406 184.121 103.144L172.684 97.5775C167.722 95.6121 162.626 94.0067 157.434 92.7738C149.809 90.9438 142.184 89.9525 134.178 88.275C126.171 86.5975 120.834 85.6063 114.124 84.31C111.074 83.7 108.1 83.2425 105.126 82.9375H104.288C103.066 81.6586 102.267 80.0347 102 78.2863C101.506 75.9516 101.944 73.5165 103.22 71.5C105.088 68.8361 107.573 66.6645 110.464 65.1713C113.19 63.6511 116.264 62.863 119.385 62.8838C121.962 62.9077 124.525 63.2665 127.01 63.9513C133.186 65.5525 139.363 68.2975 145.31 69.975C148.055 70.7375 150.724 71.4238 153.545 71.9575C159.798 73.1775 166.05 74.0163 172.302 75.3125C178.555 76.6088 185.036 78.5913 191.517 79.9638L196.931 80.8788C195.308 81.7607 193.797 82.836 192.433 84.0813Z" fill="white"/>
<path fill-rule="evenodd" clip-rule="evenodd" d="M141.345 167.726C137.828 168.576 134.405 169.776 131.128 171.309C128.815 172.469 126.574 173.768 124.418 175.198C122.207 176.647 120.3 178.248 118.089 179.544C117.809 179.659 117.554 179.829 117.339 180.042C117.124 180.256 116.953 180.51 116.836 180.79C116.72 181.069 116.659 181.369 116.658 181.672C116.657 181.976 116.716 182.276 116.831 182.556C116.946 182.837 117.115 183.091 117.329 183.306C117.543 183.521 117.797 183.692 118.076 183.809C118.356 183.926 118.656 183.986 118.959 183.987C119.262 183.988 119.563 183.929 119.843 183.814C123.367 182.97 126.811 181.822 130.137 180.383C131.967 179.544 133.797 178.553 135.627 177.486C137.457 176.418 140.583 174.054 143.252 172.606C143.894 172.334 144.409 171.829 144.693 171.191C144.976 170.554 145.006 169.833 144.777 169.174C144.506 168.533 143.997 168.023 143.356 167.752C142.715 167.482 141.993 167.472 141.345 167.726Z" fill="white"/>
<path fill-rule="evenodd" clip-rule="evenodd" d="M146.835 103.523C146.629 103.301 146.365 103.143 146.072 103.065C142.334 101.52 138.161 101.385 134.33 102.684C130.431 103.852 126.941 106.099 124.265 109.165C122.888 110.713 121.883 112.555 121.328 114.551C120.773 116.546 120.682 118.643 121.062 120.679C121.499 122.266 122.319 123.721 123.449 124.917C124.578 126.114 125.985 127.015 127.544 127.542C131.163 128.807 135.007 129.301 138.829 128.99C142.887 128.691 146.739 127.086 149.809 124.415C151.498 122.9 152.766 120.973 153.488 118.821C154.21 116.669 154.361 114.367 153.926 112.139C153.565 110.222 152.725 108.427 151.486 106.921C150.246 105.415 148.646 104.246 146.835 103.523ZM144.929 118.773C142.912 120.002 140.579 120.612 138.219 120.527C135.63 120.704 133.033 120.34 130.594 119.459C129.755 119.459 129.221 118.697 129.145 118.01C129.119 116.497 129.543 115.011 130.365 113.74C131.807 111.447 133.906 109.64 136.389 108.555C138.202 107.611 140.215 107.114 142.26 107.107C142.421 107.393 142.639 107.642 142.902 107.839C143.164 108.036 143.465 108.176 143.785 108.25C144.83 108.634 145.74 109.315 146.404 110.209C147.067 111.103 147.456 112.171 147.521 113.283C147.579 114.32 147.371 115.354 146.918 116.288C146.464 117.222 145.779 118.025 144.929 118.62V118.773Z" fill="white"/>
</svg>
